# xmcd CD database file
#
# Track frame offsets:
#	150
#	18607
#	48028
#	77799
#	104154
#	127291
#	152419
#	168569
#	195737
#
# Disc length: 2781 seconds
#
# Revision: 0
# Processed by: cddbd v1.5.2PL0 Copyright (c) Steve Scherf et al.
# Submitted via: CDex 1.70beta2
#
DISCID=770adb09
DTITLE=Kenny Drew Trio - Take The A Train
DYEAR=1900
DGENRE=Jazz
TTITLE0=Take The A Train
TTITLE1=What Are You Doing The Rest Of Your Life
TTITLE2=Golden Earrings
TTITLE3=Cleopatra's Dream
TTITLE4=Summertime
TTITLE5=Smiling For You
TTITLE6=You'd Be So Nice To Come Home To
TTITLE7=Tenderly
TTITLE8=Eco Trip
EXTD=
EXTT0=
EXTT1=
EXTT2=
EXTT3=
EXTT4=
EXTT5=
EXTT6=
EXTT7=
EXTT8=
PLAYORDER=
